<?xml version="1.0" standalone="no"?>
<!DOCTYPE svg PUBLIC "-//W3C//DTD SVG 20010904//EN"
 "http://www.w3.org/TR/2001/REC-SVG-20010904/DTD/svg10.dtd">
<svg version="1.0" xmlns="http://www.w3.org/2000/svg"
 width="1280.000000pt" height="878.000000pt" viewBox="0 0 1280.000000 878.000000"
 preserveAspectRatio="xMidYMid meet">
<metadata>
Created by potrace 1.15, written by Peter Selinger 2001-2017
</metadata>
<g transform="translate(0.000000,878.000000) scale(0.100000,-0.100000)"
fill="#000000" stroke="none">
<path d="M1722 8765 c-625 -81 -1101 -407 -1308 -896 -52 -123 -98 -290 -154
-563 -27 -132 -76 -353 -109 -491 -109 -458 -144 -673 -145 -900 -1 -139 2
-171 22 -240 36 -123 115 -319 219 -540 52 -110 99 -222 104 -250 10 -46 21
-60 152 -190 149 -148 315 -286 492 -410 440 -308 1002 -594 1575 -800 l144
-52 23 -129 c13 -71 27 -166 33 -212 5 -46 16 -97 25 -114 19 -38 19 -43 -1
-72 l-15 -24 -83 63 c-46 34 -105 70 -132 79 -68 23 -155 31 -194 17 -22 -7
-38 -7 -50 -1 -11 6 -52 13 -92 16 -64 6 -75 4 -89 -12 -15 -18 -32 -54 -26
-54 2 0 30 -5 63 -11 41 -7 118 -41 254 -110 107 -55 199 -104 203 -108 11
-11 -115 -112 -133 -106 -65 20 -229 48 -295 49 l-80 1 -70 -51 c-85 -61 -126
-116 -132 -175 -6 -67 8 -79 50 -42 33 28 130 73 160 73 7 0 18 -5 24 -11 5
-5 36 -13 68 -16 l57 -6 -23 -19 c-56 -43 -322 -219 -409 -271 -140 -83 -148
-81 -305 58 -109 96 -153 130 -211 159 -61 30 -155 47 -211 37 -26 -5 -70 -3
-115 6 -101 19 -158 2 -158 -46 0 -15 11 -19 54 -24 43 -4 96 -27 253 -108
302 -156 415 -231 396 -262 -10 -16 -117 -1 -308 43 -125 29 -212 43 -285 47
l-105 5 -55 -42 c-80 -61 -100 -81 -121 -122 -18 -36 -26 -108 -13 -121 4 -3
22 6 40 20 19 14 64 36 100 50 57 20 69 22 83 10 12 -11 99 -17 381 -26 367
-12 495 -22 512 -39 15 -15 -38 -141 -117 -275 -69 -119 -72 -126 -51 -131 21
-5 46 -43 46 -69 0 -7 -9 -30 -19 -50 l-19 -38 36 7 c68 11 156 36 182 50 68
37 75 52 94 177 36 247 96 420 159 454 27 15 63 18 252 18 121 0 275 -3 342
-8 119 -7 121 -7 116 13 -5 18 -1 20 33 20 69 0 84 -9 84 -45 0 -18 -10 -44
-22 -60 -20 -26 -20 -27 -2 -22 10 3 48 11 84 18 76 14 140 39 159 63 7 9 19
16 26 16 8 0 19 48 34 137 36 230 79 375 126 425 30 32 71 44 185 53 78 6 400
-7 514 -21 45 -6 48 -5 42 14 -20 60 132 24 210 -50 37 -34 53 -24 30 20 -26
51 -123 129 -219 177 l-92 47 -304 -16 c-167 -9 -305 -15 -307 -13 -4 4 1050
807 1085 827 14 8 46 26 71 41 25 15 101 50 170 79 69 29 213 91 320 139 l195
88 170 17 c94 9 245 26 338 37 l168 20 127 -113 c69 -62 246 -221 392 -353
1299 -1176 1772 -1565 2168 -1786 159 -89 313 -130 370 -100 12 6 114 -32 372
-139 538 -223 730 -309 1025 -463 392 -204 1337 -674 1575 -784 331 -154 543
-236 640 -249 51 -7 102 12 114 41 11 29 6 84 -11 127 -11 29 -13 43 -5 46 34
11 92 66 111 104 31 64 27 97 -19 165 -52 79 -253 288 -448 465 -263 241 -272
247 -469 348 -171 88 -184 97 -194 130 -6 19 -29 71 -49 115 -36 76 -44 85
-127 146 -196 146 -808 557 -1403 941 l-255 165 -98 146 c-144 216 -144 216
-472 404 -289 166 -1496 813 -1516 813 -5 0 -9 4 -9 9 0 4 57 11 127 15 137 8
151 13 179 68 34 65 1 108 -129 171 -80 39 -111 48 -232 67 -77 11 -152 25
-167 30 -15 5 -167 96 -337 204 -692 436 -961 590 -1383 792 -174 83 -464 228
-645 320 -180 93 -333 169 -339 169 -6 0 -101 57 -211 127 -110 70 -207 130
-216 134 -12 4 -20 -2 -28 -20 -7 -14 -16 -26 -21 -26 -5 0 -49 27 -98 60
-134 90 -360 217 -491 276 -146 66 -275 107 -415 134 -449 86 -596 134 -711
235 -93 81 -158 215 -150 307 13 147 184 313 462 448 l100 49 170 15 c94 9
267 23 385 31 219 16 253 20 443 57 l109 20 28 -33 c39 -46 55 -31 45 43 -6
49 -12 58 -74 118 -162 158 -636 335 -1040 390 -74 10 -86 15 -110 42 -37 45
-161 141 -239 187 -255 147 -648 212 -1010 166z m3151 -2833 c27 -24 45 -42
40 -40 -4 2 -35 17 -68 32 -74 35 -68 30 -60 56 8 24 10 23 88 -48z m-938
-2550 c-203 -178 -683 -521 -861 -615 -76 -39 -108 -45 -136 -24 -14 11 0 25
114 112 72 55 145 107 162 115 38 19 487 328 501 345 6 7 53 26 105 42 99 32
131 39 115 25z m-1115 -758 c0 -17 -34 -27 -62 -18 -22 7 -22 7 7 30 30 24 55
18 55 -12z m62 -165 c75 -5 144 -12 153 -16 32 -12 -4 -109 -106 -285 l-39
-67 -68 31 c-37 18 -69 35 -72 40 -3 4 -133 1 -289 -8 -156 -8 -297 -14 -313
-12 -28 3 -27 4 39 54 37 28 136 103 219 167 l152 115 93 -5 c52 -2 156 -8
231 -14z"/>
</g>
</svg>
